<svg width="124" height="38" viewBox="0 0 124 38" fill="none" xmlns="http://www.w3.org/2000/svg">
<g clip-path="url(#clip0_9259_59358)">
<path d="M95.5 37.7V28.8H98.9C99.6 28.8 100.2 28.9 100.7 29.2C101.2 29.4 101.5 29.8 101.8 30.2C102 30.6 102.1 31.1 102.1 31.6C102.1 32.1 102 32.5 101.8 33C101.6 33.4 101.2 33.8 100.8 34C100.3 34.3 99.7 34.4 99 34.4H97.4V37.7H95.5ZM97.3 33H98.8C99.3 33 99.7 32.9 99.9 32.6C100.1 32.4 100.2 32 100.2 31.6C100.2 31.2 100.1 30.8 99.9 30.6C99.7 30.4 99.3 30.2 98.8 30.2H97.3V33Z" fill="#35BBFD"/>
<path d="M102.4 37.7V28.6H104.2V37.7H102.4Z" fill="#35BBFD"/>
<path d="M107.1 37.9C106.6 37.9 106.1 37.8 105.8 37.6C105.4 37.4 105.2 37.2 105 36.9C104.8 36.6 104.8 36.3 104.8 35.9C104.8 35.5 104.9 35.2 105.1 34.9C105.3 34.6 105.6 34.4 106 34.2C106.4 34 106.9 33.9 107.5 33.9H109.1C109.1 33.6 109.1 33.3 109 33.1C108.9 32.9 108.8 32.8 108.6 32.7C108.4 32.6 108.2 32.5 107.9 32.5C107.6 32.5 107.3 32.6 107.1 32.7C106.9 32.8 106.8 33 106.7 33.3H105C105.1 32.8 105.2 32.4 105.5 32.1C105.8 31.8 106.1 31.5 106.5 31.3C106.9 31.1 107.4 31 108 31C108.6 31 109.1 31.1 109.6 31.3C110 31.5 110.4 31.8 110.6 32.2C110.8 32.6 111 33 111 33.6V37.6H109.5L109.3 36.6C109.2 36.8 109.1 36.9 109 37.1C108.9 37.2 108.7 37.4 108.6 37.4C108.4 37.5 108.2 37.6 108 37.6C107.6 37.8 107.4 37.9 107.1 37.9ZM107.6 36.5C107.8 36.5 108 36.5 108.2 36.4C108.4 36.3 108.5 36.2 108.6 36.1C108.7 36 108.8 35.8 108.9 35.6C109 35.4 109 35.2 109.1 35H107.8C107.6 35 107.4 35 107.2 35.1C107 35.2 106.9 35.3 106.9 35.4C106.8 35.5 106.8 35.6 106.8 35.8C106.8 36 106.8 36.1 106.9 36.2C107 36.3 107.1 36.4 107.2 36.4C107.2 36.5 107.4 36.5 107.6 36.5Z" fill="#35BBFD"/>
<path d="M111.6 37.7V31.3H113.2L113.3 32.3C113.5 31.9 113.8 31.7 114.1 31.4C114.5 31.2 114.9 31.1 115.4 31.1C115.9 31.1 116.4 31.2 116.7 31.4C117.1 31.6 117.3 31.9 117.5 32.4C117.7 32.8 117.8 33.3 117.8 34V37.7H116V34.2C116 33.7 115.9 33.3 115.7 33.1C115.5 32.8 115.2 32.7 114.7 32.7C114.4 32.7 114.2 32.8 114 32.9C113.8 33 113.6 33.2 113.5 33.5C113.4 33.7 113.3 34 113.3 34.4V37.8H111.6V37.7Z" fill="#35BBFD"/>
<path d="M121.1 37.9C120.5 37.9 120 37.8 119.6 37.6C119.2 37.4 118.8 37.2 118.6 36.8C118.4 36.5 118.2 36.1 118.2 35.7H120C120 35.9 120.1 36 120.2 36.1C120.3 36.2 120.4 36.3 120.6 36.4C120.8 36.5 121 36.5 121.2 36.5C121.4 36.5 121.6 36.5 121.7 36.4C121.8 36.3 121.9 36.3 122 36.2C122.1 36.1 122.1 36 122.1 35.9C122.1 35.7 122 35.6 121.9 35.5C121.8 35.4 121.7 35.3 121.5 35.3C121.3 35.3 121.1 35.2 120.8 35.1C120.5 35 120.2 35 119.9 34.9C119.6 34.8 119.3 34.7 119.1 34.6C118.9 34.5 118.7 34.3 118.5 34.1C118.4 33.9 118.3 33.6 118.3 33.3C118.3 32.9 118.4 32.6 118.6 32.3C118.8 32 119.1 31.8 119.5 31.6C119.9 31.4 120.4 31.3 120.9 31.3C121.7 31.3 122.3 31.5 122.7 31.8C123.2 32.2 123.4 32.6 123.5 33.2H122C122 33 121.9 32.9 121.7 32.8C121.5 32.7 121.3 32.6 121 32.6C120.7 32.6 120.5 32.7 120.3 32.8C120.1 32.9 120.1 33 120.1 33.2C120.1 33.3 120.2 33.4 120.3 33.5C120.4 33.6 120.5 33.7 120.7 33.7C120.9 33.8 121.1 33.8 121.4 33.9C121.9 34 122.3 34.1 122.7 34.2C123.1 34.3 123.4 34.5 123.6 34.8C123.8 35 123.9 35.4 123.9 35.8C123.9 36.2 123.8 36.6 123.6 36.9C123.4 37.2 123.1 37.5 122.7 37.6C122.2 37.8 121.7 37.9 121.1 37.9Z" fill="#35BBFD"/>
<path d="M85.9 7.8C85.3 6.9 84.5 6.2 83.5 5.7C82.5 5.2 81.3 5 80 5C78.3 5 76.8 5.4 75.4 6.3C74.1 7.2 73 8.3 72.2 9.8C71.4 11.3 71 12.9 71 14.8C71 16.7 71.4 18.3 72.2 19.8C73 21.3 74 22.4 75.4 23.3C76.7 24.1 78.3 24.6 79.9 24.6C81.4 24.6 82.6 24.3 83.6 23.7C84.6 23.1 85.3 22.4 85.9 21.6L86.3 24.1H91.1V5.5H86.3L85.9 7.8ZM85.5 17.5C85.1 18.3 84.5 18.9 83.8 19.3C83.1 19.7 82.2 20 81.2 20C80.3 20 79.4 19.8 78.7 19.3C78 18.9 77.4 18.2 77 17.4C76.6 16.6 76.4 15.7 76.4 14.6C76.4 13.6 76.6 12.7 77 11.9C77.4 11.1 78 10.5 78.7 10.1C79.4 9.7 80.3 9.4 81.2 9.4C82.2 9.4 83 9.6 83.8 10.1C84.5 10.5 85.1 11.2 85.5 11.9C85.9 12.7 86.1 13.6 86.1 14.6C86.1 15.6 85.9 16.7 85.5 17.5Z" fill="#35BBFD"/>
<path d="M105.3 5C104.3 5 103.3 5.2 102.4 5.5C101.5 5.8 100.7 6.3 100.1 6.8C99.4 7.4 98.9 8.1 98.4 8.9L97.9 5.5H93.3V24.1H98.5V15.6C98.5 14.6 98.6 13.8 98.9 13.1C99.1 12.4 99.5 11.9 99.9 11.5C100.4 11.1 100.9 10.8 101.5 10.7C102.1 10.5 102.8 10.4 103.6 10.4H105.3V5Z" fill="#35BBFD"/>
<path d="M122.8 9.5C122 8.1 120.9 7 119.5 6.2C118.1 5.4 116.5 5 114.6 5C112.7 5 111 5.4 109.6 6.3C108.2 7.2 107 8.3 106.2 9.8C105.4 11.3 105 13 105 14.9C105 16.8 105.4 18.5 106.2 19.9C107 21.3 108.1 22.5 109.6 23.3C111 24.1 112.7 24.5 114.6 24.5C116.1 24.5 117.4 24.2 118.6 23.7C119.8 23.1 120.8 22.4 121.6 21.5C122.4 20.6 123 19.5 123.4 18.4H118.1C117.8 19 117.4 19.5 116.8 19.8C116.2 20.2 115.5 20.4 114.6 20.4C113.7 20.4 112.9 20.2 112.3 19.8C111.6 19.4 111.1 18.8 110.7 18.1C110.4 17.5 110.2 16.9 110.2 16.1H123.9C123.9 15.8 124 15.4 124 15.1C124 14.8 124 14.5 124 14.3C124 12.5 123.6 10.9 122.8 9.5ZM110.4 12.9C110.5 12.4 110.7 11.9 110.9 11.5C111.3 10.7 111.8 10.2 112.5 9.8C113.2 9.4 114 9.2 114.8 9.2C115.9 9.2 116.8 9.5 117.6 10.2C118.4 10.9 118.8 11.8 118.8 12.9H110.4Z" fill="#35BBFD"/>
<path d="M47 24.1V5.5H52.2V24.1H47Z" fill="#F58041"/>
<path d="M52.1 0.200012H47V3.40001H52.1V0.200012Z" fill="#F58041"/>
<path d="M66.5 18.9C66.1 19.3 65.7 19.6 65.2 19.8C64.7 20 64.1 20.1 63.5 20.1C62.9 20.1 62.3 20 61.8 19.7C61.3 19.5 60.8 19.1 60.4 18.6C60 18.1 59.7 17.6 59.5 16.9C59.3 16.4 59.2 15.8 59.2 15.2C57.3 14.6 55.5 13.4 54.3 11.7C54.1 12.6 53.9 13.6 53.9 14.7C53.9 16.6 54.3 18.2 55.1 19.7C55.9 21.2 57.1 22.3 58.5 23.1C60 23.9 61.6 24.4 63.5 24.4C65.9 24.4 67.9 23.8 69.6 22.5C70.2 22 70.7 21.5 71.2 20.9L67.3 17.3C67.1 18 66.8 18.5 66.5 18.9Z" fill="#35BBFD"/>
<path d="M59.2 13.7C59.3 13 59.4 12.4 59.7 11.9C60.1 11.1 60.6 10.5 61.2 10.1C61.9 9.70001 62.6 9.50001 63.4 9.50001C64.3 9.50001 65.1 9.70001 65.8 10.2C66.3 10.6 66.7 11.1 66.9 11.7L71.2 8.80001C70.7 8.10001 70.2 7.50001 69.5 7.00001C67.9 5.70001 65.8 5.10001 63.5 5.10001C61.6 5.10001 59.9 5.50001 58.5 6.40001C57 7.30001 55.9 8.40001 55.1 9.90001C55 9.90001 55 10 54.9 10.1C55.9 11.8 57.4 13 59.2 13.7Z" fill="#F58041"/>
<path d="M44.4 9.8C43.6 8.3 42.6 7.2 41.2 6.3C39.9 5.4 38.3 5 36.6 5C35.6 5 34.7 5.1 34 5.4C33.2 5.7 32.6 6.1 32 6.5C31.5 7 31 7.4 30.6 8L30 5.5H25.4C26.5 7.1 27.4 8.9 27.8 10.8C28 11.7 27.5 12.5 26.7 12.9L25.4 13.4V17C25.8 17.1 26.3 17.3 26.6 17.4C26.9 17.5 27.1 17.7 27.3 18C27.4 18.3 27.4 18.6 27.3 18.9C26.8 20.1 26.2 21.3 25.4 22.4V32.4H30.6V21.7C31.2 22.6 32 23.3 33 23.8C34 24.3 35.2 24.5 36.5 24.5C38.2 24.5 39.7 24.1 41 23.2C42.3 22.4 43.4 21.2 44.2 19.7C45 18.2 45.4 16.6 45.4 14.7C45.5 12.9 45.1 11.3 44.4 9.8ZM39.6 17.5C39.2 18.3 38.6 18.9 37.9 19.3C37.2 19.7 36.3 20 35.4 20C34.4 20 33.6 19.8 32.9 19.3C32.2 18.9 31.6 18.2 31.2 17.5C30.8 16.7 30.6 15.8 30.6 14.8C30.6 13.8 30.8 12.9 31.2 12.1C31.6 11.3 32.2 10.7 32.9 10.2C33.6 9.7 34.5 9.5 35.4 9.5C36.3 9.5 37.2 9.7 37.9 10.2C38.6 10.7 39.2 11.3 39.6 12.1C40 12.9 40.2 13.8 40.2 14.8C40.3 15.8 40 16.7 39.6 17.5Z" fill="#F58041"/>
<path d="M27.1 11C26.8 9.60001 26.2 8.20001 25.5 7.00001C23.1 2.90001 18.7 0.100006 13.6 0.100006C10.3 0.100006 6.99998 1.10001 4.79998 3.30001C4.49998 3.60001 4.19998 4.00001 4.19998 4.00001C3.99998 4.40001 3.89998 4.60001 3.79998 5.00001C3.69998 5.40001 3.69998 5.90001 3.79998 6.30001C3.99998 6.90001 4.09998 7.40001 4.39998 8.00001C4.89998 9.10001 5.49998 10.1 6.19998 11C7.39998 8.10001 10.3 6.00001 13.6 6.00001C15.8 6.00001 17.8 6.80001 19.2 8.30001L13.9 10.5C10.7 11.8 9.19998 15.4 10.4 18.6L25.4 12.5L26.4 12.1C27 11.9 27.2 11.4 27.1 11Z" fill="#F58041"/>
<path d="M26.5 18.1C26.2 18 25.9 17.9 25.6 17.8C24.6 17.5 23.4 17.1 23.3 17.1C23 17 22 16.6 20.8 17.2C19.6 17.8 18.3 20.6 15.7 21.2C11 22.5 7.2 19.5 6.2 16.1C5.8 14.7 5.9 13.1 5.9 12.8C3.4 10 2.4 6.80002 2.4 6.30002C0.9 8.40002 0 11 0 13.9C0 21.5 6.1 27.6 13.7 27.6C18.6 27.6 23 24.8 25.5 20.8C26 20.1 26.3 19.3 26.6 18.5C26.7 18.4 26.6 18.2 26.5 18.1Z" fill="#F58041"/>
</g>
<defs>
<clipPath id="clip0_9259_59358">
<rect width="124" height="37.8" fill="white" transform="translate(0 0.100006)"/>
</clipPath>
</defs>
</svg>
